<svg width="14" height="11" viewBox="0 0 14 11" fill="none" xmlns="http://www.w3.org/2000/svg">
<path d="M7.33332 10.0001V8.66675H9.33332L11.7 5.33342L9.33332 2.00008H2.66666V4.00008H1.33332V2.00008C1.33332 1.63341 1.46388 1.31953 1.72499 1.05841C1.9861 0.797304 2.29999 0.666748 2.66666 0.666748H9.33332C9.55555 0.666748 9.76388 0.716748 9.95832 0.816748C10.1528 0.916748 10.3111 1.05564 10.4333 1.23341L13.3333 5.33342L10.4333 9.43342C10.3111 9.61119 10.1528 9.75008 9.95832 9.85008C9.76388 9.95008 9.55555 10.0001 9.33332 10.0001H7.33332ZM2.66666 10.6667V8.66675H0.666656V7.33342H2.66666V5.33342H3.99999V7.33342H5.99999V8.66675H3.99999V10.6667H2.66666Z" fill="#FCFCFC"/>
</svg>
