<svg width="14" height="14" viewBox="0 0 14 14" fill="none" xmlns="http://www.w3.org/2000/svg">
<path d="M8.99999 9.33342C9.36666 9.33342 9.68054 9.20286 9.94166 8.94175C10.2028 8.68064 10.3333 8.36675 10.3333 8.00008C10.3333 7.63341 10.2028 7.31953 9.94166 7.05841C9.68054 6.7973 9.36666 6.66675 8.99999 6.66675C8.83332 6.66675 8.67499 6.6973 8.52499 6.75841C8.37499 6.81953 8.23888 6.90008 8.11666 7.00008L6.33332 6.10008V5.90008L8.11666 5.00008C8.23888 5.10008 8.37499 5.18064 8.52499 5.24175C8.67499 5.30286 8.83332 5.33341 8.99999 5.33341C9.36666 5.33341 9.68054 5.20286 9.94166 4.94175C10.2028 4.68064 10.3333 4.36675 10.3333 4.00008C10.3333 3.63341 10.2028 3.31953 9.94166 3.05841C9.68054 2.7973 9.36666 2.66675 8.99999 2.66675C8.63332 2.66675 8.31943 2.7973 8.05832 3.05841C7.79721 3.31953 7.66666 3.63341 7.66666 4.00008V4.10008L5.88332 5.00008C5.7611 4.90008 5.62499 4.81953 5.47499 4.75841C5.32499 4.6973 5.16666 4.66675 4.99999 4.66675C4.63332 4.66675 4.31943 4.7973 4.05832 5.05841C3.79721 5.31953 3.66666 5.63341 3.66666 6.00008C3.66666 6.36675 3.79721 6.68064 4.05832 6.94175C4.31943 7.20286 4.63332 7.33341 4.99999 7.33341C5.16666 7.33341 5.32499 7.30286 5.47499 7.24175C5.62499 7.18064 5.7611 7.10008 5.88332 7.00008L7.66666 7.90008V8.00008C7.66666 8.36675 7.79721 8.68064 8.05832 8.94175C8.31943 9.20286 8.63332 9.33342 8.99999 9.33342ZM0.666656 14.0001V2.00008C0.666656 1.63341 0.797212 1.31953 1.05832 1.05841C1.31943 0.797304 1.63332 0.666748 1.99999 0.666748H12.6667C13.0333 0.666748 13.3472 0.797304 13.6083 1.05841C13.8694 1.31953 14 1.63341 14 2.00008V10.0001C14 10.3667 13.8694 10.6806 13.6083 10.9417C13.3472 11.2029 13.0333 11.3334 12.6667 11.3334H3.33332L0.666656 14.0001ZM2.76666 10.0001H12.6667V2.00008H1.99999V10.7501L2.76666 10.0001Z" fill="#333333"/>
</svg>