
<svg width="209" height="62" viewBox="0 0 209 62" fill="none" xmlns="http://www.w3.org/2000/svg">
<g clip-path="url(#clip0_732_2251)">
<path d="M197.7 0.649902H11.3C5.21938 0.649902 0.290039 5.57925 0.290039 11.6599V50.3399C0.290039 56.4206 5.21938 61.3499 11.3 61.3499H197.7C203.781 61.3499 208.71 56.4206 208.71 50.3399V11.6599C208.71 5.57925 203.781 0.649902 197.7 0.649902Z" fill="white"/>
<path d="M24.3451 51.86H21.4969L20.6974 53.74H19.8779L22.956 46.74L25.9541 53.74H25.1347L24.3551 51.86H24.3451ZM24.0553 51.16L22.936 48.48L21.7967 51.16H24.0553Z" fill="#5A5F69"/>
<path d="M28.8823 53.7398V46.7798L34.0891 52.2398V47.0598H34.8286V54.0398L29.6219 48.5798V53.7398H28.8823Z" fill="#5A5F69"/>
<path d="M45.5817 51.86H42.7335L41.934 53.74H41.1145L44.1926 46.74L47.1907 53.74H46.3712L45.5917 51.86H45.5817ZM45.2919 51.16L44.1726 48.48L43.0333 51.16H45.2919Z" fill="#5A5F69"/>
<path d="M55.0259 48.53C54.816 48.32 54.4962 48.07 54.1565 47.91C53.8067 47.75 53.3969 47.65 53.0072 47.65C51.4681 47.65 50.3189 48.89 50.3189 50.44C50.3189 52.25 51.7879 53.17 53.0172 53.17C53.4669 53.17 53.9066 53.04 54.2564 52.86C54.6362 52.67 54.906 52.42 55.0259 52.3V53.22C54.2864 53.75 53.5169 53.87 53.0172 53.87C51.0384 53.87 49.5593 52.37 49.5593 50.43C49.5593 48.49 51.0484 46.95 53.0571 46.95C53.4569 46.95 54.2264 47 55.0259 47.61V48.53Z" fill="#5A5F69"/>
<path d="M63.4905 48.53C63.2806 48.32 62.9608 48.07 62.6211 47.91C62.2713 47.75 61.8615 47.65 61.4718 47.65C59.9327 47.65 58.7835 48.89 58.7835 50.44C58.7835 52.25 60.2525 53.17 61.4818 53.17C61.9315 53.17 62.3712 53.04 62.721 52.86C63.1008 52.67 63.3706 52.42 63.4905 52.3V53.22C62.751 53.75 61.9815 53.87 61.4818 53.87C59.503 53.87 58.0239 52.37 58.0239 50.43C58.0239 48.49 59.513 46.95 61.5217 46.95C61.9215 46.95 62.691 47 63.4905 47.61V48.53Z" fill="#5A5F69"/>
<path d="M66.4988 50.41C66.4988 48.42 68.0478 46.95 69.9766 46.95C71.9054 46.95 73.4544 48.41 73.4544 50.41C73.4544 52.41 71.9154 53.87 69.9766 53.87C68.0378 53.87 66.4988 52.4 66.4988 50.41ZM67.2583 50.41C67.2583 51.9399 68.4676 53.17 69.9766 53.17C71.4857 53.17 72.6949 51.95 72.6949 50.41C72.6949 48.87 71.4857 47.65 69.9766 47.65C68.4676 47.65 67.2583 48.87 67.2583 50.41Z" fill="#5A5F69"/>
<path d="M77.8816 47.0598C78.3313 47.0598 79.0009 47.0898 79.5006 47.4298C79.8903 47.6898 80.2301 48.1998 80.2301 48.9098C80.2301 49.9298 79.5605 50.6798 78.5512 50.7498L80.6699 53.7398H79.7704L77.7417 50.8098H77.5518V53.7398H76.8123V47.0598H77.8816ZM77.5518 50.1598H78.0215C78.9409 50.1598 79.4906 49.7198 79.4906 48.9398C79.4906 48.5698 79.3807 48.1998 78.9609 47.9598C78.6611 47.7898 78.3213 47.7698 78.0015 47.7698H77.5518V50.1598Z" fill="#5A5F69"/>
<path d="M83.8479 47.0598H85.2071C85.8766 47.0598 86.826 47.1298 87.6655 47.8398C88.2751 48.3498 88.8048 49.1998 88.8048 50.3998C88.8048 51.7998 88.1152 52.5498 87.6355 52.9598C87.0259 53.4798 86.3863 53.7298 85.1971 53.7298H83.8479V47.0498V47.0598ZM84.5874 53.0398H85.237C85.7667 53.0398 86.4963 52.9798 87.1458 52.4398C87.6455 52.0198 88.0453 51.3598 88.0453 50.4098C88.0453 48.8098 86.926 47.7598 85.227 47.7598H84.5774V53.0398H84.5874Z" fill="#5A5F69"/>
<path d="M92.9128 47.0598V53.7398H92.1729V47.0598H92.9128Z" fill="#5A5F69"/>
<path d="M96.2803 50.41C96.2803 48.42 97.8293 46.95 99.7581 46.95C101.687 46.95 103.236 48.41 103.236 50.41C103.236 52.41 101.697 53.87 99.7581 53.87C97.8193 53.87 96.2803 52.4 96.2803 50.41ZM97.0398 50.41C97.0398 51.9399 98.249 53.17 99.7581 53.17C101.267 53.17 102.476 51.95 102.476 50.41C102.476 48.87 101.267 47.65 99.7581 47.65C98.249 47.65 97.0398 48.87 97.0398 50.41Z" fill="#5A5F69"/>
<path d="M106.594 53.7398V46.7798L111.801 52.2398V47.0598H112.54V54.0398L107.333 48.5798V53.7398H106.594Z" fill="#5A5F69"/>
<path d="M136.625 48.53C136.415 48.32 136.095 48.07 135.756 47.91C135.406 47.75 134.996 47.65 134.606 47.65C133.067 47.65 131.918 48.89 131.918 50.44C131.918 52.25 133.387 53.17 134.616 53.17C135.066 53.17 135.506 53.04 135.856 52.86C136.235 52.67 136.505 52.42 136.625 52.3V53.22C135.885 53.75 135.116 53.87 134.616 53.87C132.638 53.87 131.158 52.37 131.158 50.43C131.158 48.49 132.648 46.95 134.656 46.95C135.056 46.95 135.826 47 136.625 47.61V48.53Z" fill="#5A5F69"/>
<path d="M139.633 50.41C139.633 48.42 141.182 46.95 143.111 46.95C145.04 46.95 146.589 48.41 146.589 50.41C146.589 52.41 145.05 53.87 143.111 53.87C141.172 53.87 139.633 52.4 139.633 50.41ZM140.393 50.41C140.393 51.9399 141.602 53.17 143.111 53.17C144.62 53.17 145.829 51.95 145.829 50.41C145.829 48.87 144.62 47.65 143.111 47.65C141.602 47.65 140.393 48.87 140.393 50.41Z" fill="#5A5F69"/>
<path d="M149.717 53.7399L150.826 46.6899L153.385 52.3299L156.003 46.6799L157.042 53.7399H156.283L155.653 49.0899L153.385 54.0199L151.146 49.0899L150.486 53.7399H149.717Z" fill="#5A5F69"/>
<path d="M161.799 47.0598C162.469 47.0598 163.029 47.1398 163.478 47.5298C163.968 47.9498 164.088 48.5398 164.088 48.9598C164.088 49.8998 163.498 50.8298 161.979 50.8298H161.33V53.7398H160.59V47.0598H161.799ZM161.33 50.1398H161.939C162.819 50.1398 163.348 49.6998 163.348 48.9298C163.348 47.8698 162.359 47.7698 161.879 47.7698H161.33V50.1398Z" fill="#5A5F69"/>
<path d="M170.324 51.86H167.476L166.676 53.74H165.857L168.935 46.74L171.933 53.74H171.113L170.334 51.86H170.324ZM170.034 51.16L168.915 48.48L167.775 51.16H170.034Z" fill="#5A5F69"/>
<path d="M174.871 53.7398V46.7798L180.078 52.2398V47.0598H180.817V54.0398L175.611 48.5798V53.7398H174.871Z" fill="#5A5F69"/>
<path d="M185.954 50.8698L183.766 47.0598H184.625L186.324 50.0498L188.043 47.0598H188.902L186.694 50.8698V53.7498H185.954V50.8698Z" fill="#5A5F69"/>
<path d="M41.0347 42.9599H36.8373V28.6799C36.8373 26.8599 36.3776 25.4299 35.4782 24.3799C34.5787 23.3299 33.3195 22.7999 31.7505 22.7999C29.8917 22.7999 28.6324 23.2999 27.9729 24.3199C27.3033 25.2999 26.9035 26.1099 26.7636 26.7299C26.6137 27.3199 26.5537 28.2399 26.5537 29.4599V42.9599H22.3564V29.0399C22.3564 24.8699 20.5875 22.7899 17.0497 22.7899C15.2608 22.7899 13.9316 23.2299 13.242 24.2399C12.5725 25.2599 12.2826 26.0999 12.1727 26.6199C12.0628 27.1499 12.0128 28.0199 12.0128 29.2499V42.9599H7.81543V28.6199C7.81543 26.6999 7.97533 25.2199 8.28514 24.2099C8.52499 23.5399 9.13461 21.8199 10.5337 20.5899C12.0128 19.2899 14.0815 18.6399 16.8398 18.6399C20.1977 18.6399 22.7561 20.1199 24.505 23.0499C26.184 20.1099 28.6824 18.6399 32.0103 18.6399C34.7786 18.6399 36.9573 19.5099 38.5762 21.2699C40.2152 22.9899 41.0447 25.2899 41.0447 28.1999V42.9599H41.0347ZM66.1091 31.9299L69.0472 33.5599C67.1284 40.1399 63.021 43.4399 56.7049 43.4399C53.2771 43.4399 50.3389 42.2399 47.8804 39.8599C45.4719 37.4499 44.2627 34.5099 44.2627 31.0299C44.2627 27.5499 45.4619 24.5799 47.8405 22.1999C50.219 19.8199 53.1771 18.6199 56.7049 18.6199C61.392 18.6199 65.0697 20.9799 67.7281 25.7099L52.4476 35.6899L50.6587 32.5899L62.2615 24.8099C60.9323 23.1999 59.0735 22.3999 56.6949 22.3999C54.3164 22.3999 52.4576 23.1899 50.9185 24.7699C49.3795 26.3499 48.61 28.3499 48.61 30.7599C48.61 33.1699 49.4495 35.2599 51.1384 37.0099C52.8174 38.7599 54.8361 39.6399 57.1846 39.6399C59.3833 39.6399 61.2621 38.9699 62.8011 37.6399C64.3402 36.3199 65.4495 34.4099 66.1091 31.9299ZM77.3421 42.9599H73.1447V19.1099H77.3421V22.3399C78.981 19.1899 81.0298 18.5399 83.4283 18.3699H85.0073V22.6399H84.1678C81.5294 22.7899 80.7499 23.3999 79.3908 24.9399C78.0316 26.4799 77.3421 28.8999 77.3421 32.1899V42.9499V42.9599ZM94.0416 42.9599H89.8443V19.1099H94.0416V42.9599Z" fill="#24216D"/>
<path d="M106.504 42.9599H101.637V7.91992H106.504V42.9599ZM141.182 22.8999V34.0299C141.182 36.0999 141.552 37.4799 142.291 38.1799C143.031 38.8799 144.51 39.2299 146.749 39.2299H148.797V42.9599H146.539C142.901 42.9599 140.393 42.3299 139.033 41.0699C137.674 39.8099 136.985 37.5199 136.985 34.1899V11.9699H141.182V19.2199H148.797V22.8999H141.182ZM158.401 42.9599H154.204V19.1099H158.401V42.9599ZM179.418 39.2299V42.9599H176.32C174.012 42.9599 172.123 42.6899 170.644 42.1799C169.215 41.6499 167.536 40.5999 165.787 38.7699C164.038 36.9499 163.238 34.2699 163.238 30.9899C163.238 29.2699 163.638 27.5699 164.448 25.8899C165.247 24.1699 166.516 22.6199 168.225 21.2199C169.974 19.8199 172.542 19.1199 175.94 19.1199H179.398V22.7999H176.93C174.062 22.7999 171.783 23.5499 170.104 25.0599C168.425 26.5699 167.576 28.5899 167.576 31.1499C167.576 33.7099 168.405 35.6499 170.044 37.0799C171.683 38.5099 173.942 39.2399 176.81 39.2399H179.418V39.2299ZM183.286 42.9599V39.2799H193.2C194.559 39.2799 195.418 39.2599 195.768 39.2199C196.118 39.1499 196.568 38.9699 197.127 38.6899C197.717 38.3799 198.017 37.6999 198.017 36.6399C198.017 35.4399 197.297 34.6099 195.858 34.1099L186.993 30.9599C185.315 30.3699 184.105 29.6299 183.376 28.7599C182.676 27.8499 182.326 26.6399 182.326 25.1399C182.326 21.1199 185.235 19.0899 191.041 19.0899H200.595V22.7699H190.411C187.853 22.7699 186.584 23.6599 186.584 25.4499C186.584 26.5699 187.323 27.3699 188.782 27.8599L197.077 30.7999C199.036 31.4699 200.405 32.2499 201.175 33.1599C201.974 34.0299 202.384 35.2299 202.384 36.7399C202.384 40.8699 199.736 42.9399 194.459 42.9399H183.286V42.9599Z" fill="#9FC03B"/>
<path d="M91.9129 16.4697C93.4252 16.4697 94.6511 15.243 94.6511 13.7297C94.6511 12.2165 93.4252 10.9897 91.9129 10.9897C90.4005 10.9897 89.1746 12.2165 89.1746 13.7297C89.1746 15.243 90.4005 16.4697 91.9129 16.4697Z" fill="#24216D"/>
<path d="M156.243 16.4697C157.755 16.4697 158.981 15.243 158.981 13.7297C158.981 12.2165 157.755 10.9897 156.243 10.9897C154.731 10.9897 153.505 12.2165 153.505 13.7297C153.505 15.243 154.731 16.4697 156.243 16.4697Z" fill="#9FC03B"/>
<path d="M109.982 19.1799L119.846 43.4199V54.1999H123.873V43.3799L115.998 22.8999L125.122 22.9599L126.621 19.1799H109.982Z" fill="#A1C11E"/>
<path d="M128.85 19.1799L122.914 34.7299L124.972 40.1399L133.497 19.1799H128.85Z" fill="#A1C11E"/>
</g>
<defs>
<clipPath id="clip0_732_2251">
<rect width="208.42" height="60.7" fill="white" transform="translate(0.290039 0.649902)"/>
</clipPath>
</defs>
</svg>
